<mxfile host="65bd71144e">
    <diagram id="C5RBs43oDa-KdzZeNtuy" name="Page-1">
        <mxGraphModel dx="1146" dy="804" grid="1" gridSize="10" guides="1" tooltips="1" connect="1" arrows="1" fold="1" page="1" pageScale="1" pageWidth="1654" pageHeight="1169" background="#F1F1F1" math="0" shadow="0">
            <root>
                <mxCell id="WIyWlLk6GJQsqaUBKTNV-0"/>
                <mxCell id="WIyWlLk6GJQsqaUBKTNV-1" parent="WIyWlLk6GJQsqaUBKTNV-0"/>
                <mxCell id="zkfFHV4jXpPFQw0GAbJ--0" value="Person" style="swimlane;fontStyle=2;align=center;verticalAlign=top;childLayout=stackLayout;horizontal=1;startSize=26;horizontalStack=0;resizeParent=1;resizeLast=0;collapsible=1;marginBottom=0;rounded=0;shadow=0;strokeWidth=1;" parent="WIyWlLk6GJQsqaUBKTNV-1" vertex="1">
                    <mxGeometry x="730" y="460" width="140" height="210" as="geometry">
                        <mxRectangle x="230" y="140" width="160" height="26" as="alternateBounds"/>
                    </mxGeometry>
                </mxCell>
                <mxCell id="zkfFHV4jXpPFQw0GAbJ--1" value="name" style="text;align=left;verticalAlign=top;spacingLeft=4;spacingRight=4;overflow=hidden;rotatable=0;points=[[0,0.5],[1,0.5]];portConstraint=eastwest;" parent="zkfFHV4jXpPFQw0GAbJ--0" vertex="1">
                    <mxGeometry y="26" width="140" height="26" as="geometry"/>
                </mxCell>
                <mxCell id="zkfFHV4jXpPFQw0GAbJ--2" value="definition" style="text;align=left;verticalAlign=top;spacingLeft=4;spacingRight=4;overflow=hidden;rotatable=0;points=[[0,0.5],[1,0.5]];portConstraint=eastwest;rounded=0;shadow=0;html=0;" parent="zkfFHV4jXpPFQw0GAbJ--0" vertex="1">
                    <mxGeometry y="52" width="140" height="26" as="geometry"/>
                </mxCell>
                <mxCell id="zkfFHV4jXpPFQw0GAbJ--3" value="gender" style="text;align=left;verticalAlign=top;spacingLeft=4;spacingRight=4;overflow=hidden;rotatable=0;points=[[0,0.5],[1,0.5]];portConstraint=eastwest;rounded=0;shadow=0;html=0;" parent="zkfFHV4jXpPFQw0GAbJ--0" vertex="1">
                    <mxGeometry y="78" width="140" height="26" as="geometry"/>
                </mxCell>
                <mxCell id="114" value="birth date" style="text;align=left;verticalAlign=top;spacingLeft=4;spacingRight=4;overflow=hidden;rotatable=0;points=[[0,0.5],[1,0.5]];portConstraint=eastwest;rounded=0;shadow=0;html=0;" vertex="1" parent="zkfFHV4jXpPFQw0GAbJ--0">
                    <mxGeometry y="104" width="140" height="26" as="geometry"/>
                </mxCell>
                <mxCell id="DzP4_-S1DueVoMuGfCK8-1" value="death date" style="text;align=left;verticalAlign=top;spacingLeft=4;spacingRight=4;overflow=hidden;rotatable=0;points=[[0,0.5],[1,0.5]];portConstraint=eastwest;rounded=0;shadow=0;html=0;" parent="zkfFHV4jXpPFQw0GAbJ--0" vertex="1">
                    <mxGeometry y="130" width="140" height="26" as="geometry"/>
                </mxCell>
                <mxCell id="99" value="field of expertise" style="text;align=left;verticalAlign=top;spacingLeft=4;spacingRight=4;overflow=hidden;rotatable=0;points=[[0,0.5],[1,0.5]];portConstraint=eastwest;rounded=0;shadow=0;html=0;" vertex="1" parent="zkfFHV4jXpPFQw0GAbJ--0">
                    <mxGeometry y="156" width="140" height="26" as="geometry"/>
                </mxCell>
                <mxCell id="Bw8D9-mf-STMI-rw64IU-12" value="Geographical place" style="swimlane;fontStyle=2;align=center;verticalAlign=top;childLayout=stackLayout;horizontal=1;startSize=26;horizontalStack=0;resizeParent=1;resizeLast=0;collapsible=1;marginBottom=0;rounded=0;shadow=0;strokeWidth=1;" parent="WIyWlLk6GJQsqaUBKTNV-1" vertex="1">
                    <mxGeometry x="280" y="200" width="120" height="138" as="geometry">
                        <mxRectangle x="230" y="140" width="160" height="26" as="alternateBounds"/>
                    </mxGeometry>
                </mxCell>
                <mxCell id="Bw8D9-mf-STMI-rw64IU-13" value="name" style="text;align=left;verticalAlign=top;spacingLeft=4;spacingRight=4;overflow=hidden;rotatable=0;points=[[0,0.5],[1,0.5]];portConstraint=eastwest;" parent="Bw8D9-mf-STMI-rw64IU-12" vertex="1">
                    <mxGeometry y="26" width="120" height="26" as="geometry"/>
                </mxCell>
                <mxCell id="Bw8D9-mf-STMI-rw64IU-14" value="definition ?" style="text;align=left;verticalAlign=top;spacingLeft=4;spacingRight=4;overflow=hidden;rotatable=0;points=[[0,0.5],[1,0.5]];portConstraint=eastwest;rounded=0;shadow=0;html=0;" parent="Bw8D9-mf-STMI-rw64IU-12" vertex="1">
                    <mxGeometry y="52" width="120" height="26" as="geometry"/>
                </mxCell>
                <mxCell id="Bw8D9-mf-STMI-rw64IU-24" value="longitude" style="text;align=left;verticalAlign=top;spacingLeft=4;spacingRight=4;overflow=hidden;rotatable=0;points=[[0,0.5],[1,0.5]];portConstraint=eastwest;rounded=0;shadow=0;html=0;" parent="Bw8D9-mf-STMI-rw64IU-12" vertex="1">
                    <mxGeometry y="78" width="120" height="26" as="geometry"/>
                </mxCell>
                <mxCell id="Bw8D9-mf-STMI-rw64IU-25" value="latitude" style="text;align=left;verticalAlign=top;spacingLeft=4;spacingRight=4;overflow=hidden;rotatable=0;points=[[0,0.5],[1,0.5]];portConstraint=eastwest;rounded=0;shadow=0;html=0;" parent="Bw8D9-mf-STMI-rw64IU-12" vertex="1">
                    <mxGeometry y="104" width="120" height="26" as="geometry"/>
                </mxCell>
                <mxCell id="Bw8D9-mf-STMI-rw64IU-26" value="" style="endArrow=classic;html=1;exitX=1;exitY=0.5;exitDx=0;exitDy=0;" parent="WIyWlLk6GJQsqaUBKTNV-1" source="Bw8D9-mf-STMI-rw64IU-14" edge="1">
                    <mxGeometry x="0.0667" y="-35" relative="1" as="geometry">
                        <mxPoint x="480" y="380" as="sourcePoint"/>
                        <mxPoint x="530" y="265" as="targetPoint"/>
                        <mxPoint as="offset"/>
                    </mxGeometry>
                </mxCell>
                <mxCell id="Bw8D9-mf-STMI-rw64IU-27" value="has type" style="edgeLabel;resizable=0;html=1;align=center;verticalAlign=middle;" parent="Bw8D9-mf-STMI-rw64IU-26" connectable="0" vertex="1">
                    <mxGeometry relative="1" as="geometry"/>
                </mxCell>
                <mxCell id="Bw8D9-mf-STMI-rw64IU-28" value="0..n" style="edgeLabel;resizable=0;html=1;align=left;verticalAlign=bottom;" parent="Bw8D9-mf-STMI-rw64IU-26" connectable="0" vertex="1">
                    <mxGeometry x="-1" relative="1" as="geometry"/>
                </mxCell>
                <mxCell id="Bw8D9-mf-STMI-rw64IU-29" value="1" style="edgeLabel;resizable=0;html=1;align=right;verticalAlign=bottom;" parent="Bw8D9-mf-STMI-rw64IU-26" connectable="0" vertex="1">
                    <mxGeometry x="1" relative="1" as="geometry"/>
                </mxCell>
                <mxCell id="Bw8D9-mf-STMI-rw64IU-49" value="" style="endArrow=classic;html=1;exitX=-0.004;exitY=0.053;exitDx=0;exitDy=0;exitPerimeter=0;" parent="WIyWlLk6GJQsqaUBKTNV-1" source="zkfFHV4jXpPFQw0GAbJ--0" edge="1">
                    <mxGeometry relative="1" as="geometry">
                        <mxPoint x="360.0000000000002" y="529.3142857142857" as="sourcePoint"/>
                        <mxPoint x="320" y="338" as="targetPoint"/>
                        <Array as="points">
                            <mxPoint x="320" y="400"/>
                        </Array>
                    </mxGeometry>
                </mxCell>
                <mxCell id="Bw8D9-mf-STMI-rw64IU-50" value="is born in" style="edgeLabel;resizable=0;html=1;align=center;verticalAlign=middle;" parent="Bw8D9-mf-STMI-rw64IU-49" connectable="0" vertex="1">
                    <mxGeometry relative="1" as="geometry">
                        <mxPoint x="36" as="offset"/>
                    </mxGeometry>
                </mxCell>
                <mxCell id="Bw8D9-mf-STMI-rw64IU-51" value="1" style="edgeLabel;html=1;align=center;verticalAlign=middle;resizable=0;points=[];" parent="Bw8D9-mf-STMI-rw64IU-49" vertex="1" connectable="0">
                    <mxGeometry x="0.8885" y="-1" relative="1" as="geometry">
                        <mxPoint x="15.55" y="-11.69" as="offset"/>
                    </mxGeometry>
                </mxCell>
                <mxCell id="Bw8D9-mf-STMI-rw64IU-52" value="0..n" style="edgeLabel;html=1;align=center;verticalAlign=middle;resizable=0;points=[];" parent="Bw8D9-mf-STMI-rw64IU-49" vertex="1" connectable="0">
                    <mxGeometry x="-0.8808" y="-1" relative="1" as="geometry">
                        <mxPoint x="4" y="12" as="offset"/>
                    </mxGeometry>
                </mxCell>
                <mxCell id="Bw8D9-mf-STMI-rw64IU-82" value="Label" style="endArrow=none;html=1;exitX=1.009;exitY=0.188;exitDx=0;exitDy=0;exitPerimeter=0;entryX=0;entryY=0.5;entryDx=0;entryDy=0;endFill=0;startArrow=classic;startFill=1;" parent="WIyWlLk6GJQsqaUBKTNV-1" source="zkfFHV4jXpPFQw0GAbJ--3" target="Bw8D9-mf-STMI-rw64IU-79" edge="1">
                    <mxGeometry relative="1" as="geometry">
                        <mxPoint x="660" y="530" as="sourcePoint"/>
                        <mxPoint x="820" y="530" as="targetPoint"/>
                    </mxGeometry>
                </mxCell>
                <mxCell id="Bw8D9-mf-STMI-rw64IU-83" value="is pursuit by" style="edgeLabel;resizable=0;html=1;align=center;verticalAlign=middle;" parent="Bw8D9-mf-STMI-rw64IU-82" connectable="0" vertex="1">
                    <mxGeometry relative="1" as="geometry"/>
                </mxCell>
                <mxCell id="Bw8D9-mf-STMI-rw64IU-84" value="1" style="edgeLabel;resizable=0;html=1;align=left;verticalAlign=bottom;" parent="Bw8D9-mf-STMI-rw64IU-82" connectable="0" vertex="1">
                    <mxGeometry x="-1" relative="1" as="geometry"/>
                </mxCell>
                <mxCell id="Bw8D9-mf-STMI-rw64IU-85" value="0..n" style="edgeLabel;resizable=0;html=1;align=right;verticalAlign=bottom;" parent="Bw8D9-mf-STMI-rw64IU-82" connectable="0" vertex="1">
                    <mxGeometry x="1" relative="1" as="geometry">
                        <mxPoint x="-15.01" y="6" as="offset"/>
                    </mxGeometry>
                </mxCell>
                <mxCell id="Bw8D9-mf-STMI-rw64IU-86" value="Occupation" style="swimlane;fontStyle=2;align=center;verticalAlign=top;childLayout=stackLayout;horizontal=1;startSize=40;horizontalStack=0;resizeParent=1;resizeLast=0;collapsible=1;marginBottom=0;rounded=0;shadow=0;strokeWidth=1;" parent="WIyWlLk6GJQsqaUBKTNV-1" vertex="1">
                    <mxGeometry x="1290" y="480" width="110" height="168" as="geometry">
                        <mxRectangle x="230" y="140" width="160" height="26" as="alternateBounds"/>
                    </mxGeometry>
                </mxCell>
                <mxCell id="Bw8D9-mf-STMI-rw64IU-87" value="name" style="text;align=left;verticalAlign=top;spacingLeft=4;spacingRight=4;overflow=hidden;rotatable=0;points=[[0,0.5],[1,0.5]];portConstraint=eastwest;" parent="Bw8D9-mf-STMI-rw64IU-86" vertex="1">
                    <mxGeometry y="40" width="110" height="26" as="geometry"/>
                </mxCell>
                <mxCell id="Bw8D9-mf-STMI-rw64IU-88" value="" style="endArrow=classic;html=1;entryX=0.5;entryY=1;entryDx=0;entryDy=0;exitX=0.994;exitY=1.122;exitDx=0;exitDy=0;exitPerimeter=0;" parent="Bw8D9-mf-STMI-rw64IU-86" source="Bw8D9-mf-STMI-rw64IU-92" target="Bw8D9-mf-STMI-rw64IU-86" edge="1">
                    <mxGeometry relative="1" as="geometry">
                        <mxPoint x="160" y="80" as="sourcePoint"/>
                        <mxPoint x="-30" y="140" as="targetPoint"/>
                        <Array as="points">
                            <mxPoint x="190" y="95"/>
                            <mxPoint x="190" y="200"/>
                            <mxPoint x="55" y="200"/>
                        </Array>
                    </mxGeometry>
                </mxCell>
                <mxCell id="Bw8D9-mf-STMI-rw64IU-90" value="specializes occupation" style="edgeLabel;resizable=0;html=1;align=center;verticalAlign=middle;" parent="Bw8D9-mf-STMI-rw64IU-88" connectable="0" vertex="1">
                    <mxGeometry relative="1" as="geometry">
                        <mxPoint x="-70" y="-1.0099999999999998" as="offset"/>
                    </mxGeometry>
                </mxCell>
                <mxCell id="Bw8D9-mf-STMI-rw64IU-91" value="0..n" style="edgeLabel;html=1;align=center;verticalAlign=middle;resizable=0;points=[];" parent="Bw8D9-mf-STMI-rw64IU-88" vertex="1" connectable="0">
                    <mxGeometry x="-0.8808" y="-1" relative="1" as="geometry">
                        <mxPoint x="-0.17999999999999972" y="-11" as="offset"/>
                    </mxGeometry>
                </mxCell>
                <mxCell id="Bw8D9-mf-STMI-rw64IU-89" value="0..n" style="edgeLabel;html=1;align=center;verticalAlign=middle;resizable=0;points=[];" parent="Bw8D9-mf-STMI-rw64IU-88" vertex="1" connectable="0">
                    <mxGeometry x="0.8885" y="-1" relative="1" as="geometry">
                        <mxPoint x="-26" y="2.4400000000000013" as="offset"/>
                    </mxGeometry>
                </mxCell>
                <mxCell id="Bw8D9-mf-STMI-rw64IU-92" value="definition" style="text;align=left;verticalAlign=top;spacingLeft=4;spacingRight=4;overflow=hidden;rotatable=0;points=[[0,0.5],[1,0.5]];portConstraint=eastwest;rounded=0;shadow=0;html=0;" parent="Bw8D9-mf-STMI-rw64IU-86" vertex="1">
                    <mxGeometry y="66" width="110" height="26" as="geometry"/>
                </mxCell>
                <mxCell id="Bw8D9-mf-STMI-rw64IU-77" value="Pursuit" style="swimlane;fontStyle=2;align=center;verticalAlign=top;childLayout=stackLayout;horizontal=1;startSize=26;horizontalStack=0;resizeParent=1;resizeLast=0;collapsible=1;marginBottom=0;rounded=0;shadow=0;strokeWidth=1;" parent="WIyWlLk6GJQsqaUBKTNV-1" vertex="1">
                    <mxGeometry x="1105.06" y="585" width="110" height="138" as="geometry">
                        <mxRectangle x="230" y="140" width="160" height="26" as="alternateBounds"/>
                    </mxGeometry>
                </mxCell>
                <mxCell id="Bw8D9-mf-STMI-rw64IU-78" value="begin date" style="text;align=left;verticalAlign=top;spacingLeft=4;spacingRight=4;overflow=hidden;rotatable=0;points=[[0,0.5],[1,0.5]];portConstraint=eastwest;" parent="Bw8D9-mf-STMI-rw64IU-77" vertex="1">
                    <mxGeometry y="26" width="110" height="26" as="geometry"/>
                </mxCell>
                <mxCell id="Bw8D9-mf-STMI-rw64IU-79" value="end date" style="text;align=left;verticalAlign=top;spacingLeft=4;spacingRight=4;overflow=hidden;rotatable=0;points=[[0,0.5],[1,0.5]];portConstraint=eastwest;rounded=0;shadow=0;html=0;" parent="Bw8D9-mf-STMI-rw64IU-77" vertex="1">
                    <mxGeometry y="52" width="110" height="26" as="geometry"/>
                </mxCell>
                <mxCell id="Bw8D9-mf-STMI-rw64IU-80" style="edgeStyle=elbowEdgeStyle;rounded=0;orthogonalLoop=1;jettySize=auto;elbow=vertical;html=1;exitX=0;exitY=0.5;exitDx=0;exitDy=0;" parent="Bw8D9-mf-STMI-rw64IU-77" source="Bw8D9-mf-STMI-rw64IU-79" target="Bw8D9-mf-STMI-rw64IU-79" edge="1">
                    <mxGeometry relative="1" as="geometry"/>
                </mxCell>
                <mxCell id="Bw8D9-mf-STMI-rw64IU-93" value="Label" style="endArrow=none;html=1;exitX=0;exitY=0.5;exitDx=0;exitDy=0;entryX=1;entryY=0.5;entryDx=0;entryDy=0;startArrow=classic;startFill=1;endFill=0;" parent="WIyWlLk6GJQsqaUBKTNV-1" source="Bw8D9-mf-STMI-rw64IU-92" target="Bw8D9-mf-STMI-rw64IU-79" edge="1">
                    <mxGeometry relative="1" as="geometry">
                        <mxPoint x="861.0799999999997" y="552.8879999999999" as="sourcePoint"/>
                        <mxPoint x="1000" y="635" as="targetPoint"/>
                    </mxGeometry>
                </mxCell>
                <mxCell id="Bw8D9-mf-STMI-rw64IU-94" value="is pursuit of" style="edgeLabel;resizable=0;html=1;align=center;verticalAlign=middle;" parent="Bw8D9-mf-STMI-rw64IU-93" connectable="0" vertex="1">
                    <mxGeometry relative="1" as="geometry"/>
                </mxCell>
                <mxCell id="Bw8D9-mf-STMI-rw64IU-95" value="1" style="edgeLabel;resizable=0;html=1;align=left;verticalAlign=bottom;" parent="Bw8D9-mf-STMI-rw64IU-93" connectable="0" vertex="1">
                    <mxGeometry x="-1" relative="1" as="geometry">
                        <mxPoint x="-20" as="offset"/>
                    </mxGeometry>
                </mxCell>
                <mxCell id="Bw8D9-mf-STMI-rw64IU-96" value="0..n" style="edgeLabel;resizable=0;html=1;align=right;verticalAlign=bottom;" parent="Bw8D9-mf-STMI-rw64IU-93" connectable="0" vertex="1">
                    <mxGeometry x="1" relative="1" as="geometry">
                        <mxPoint x="40" y="6" as="offset"/>
                    </mxGeometry>
                </mxCell>
                <mxCell id="Bw8D9-mf-STMI-rw64IU-54" value="Persons&#39; Relationship" style="swimlane;fontStyle=2;align=center;verticalAlign=top;childLayout=stackLayout;horizontal=1;startSize=26;horizontalStack=0;resizeParent=1;resizeLast=0;collapsible=1;marginBottom=0;rounded=0;shadow=0;strokeWidth=1;" parent="WIyWlLk6GJQsqaUBKTNV-1" vertex="1">
                    <mxGeometry x="350" y="680" width="130" height="138" as="geometry">
                        <mxRectangle x="230" y="140" width="160" height="26" as="alternateBounds"/>
                    </mxGeometry>
                </mxCell>
                <mxCell id="Bw8D9-mf-STMI-rw64IU-55" value="begin date" style="text;align=left;verticalAlign=top;spacingLeft=4;spacingRight=4;overflow=hidden;rotatable=0;points=[[0,0.5],[1,0.5]];portConstraint=eastwest;" parent="Bw8D9-mf-STMI-rw64IU-54" vertex="1">
                    <mxGeometry y="26" width="130" height="26" as="geometry"/>
                </mxCell>
                <mxCell id="Bw8D9-mf-STMI-rw64IU-56" value="end date" style="text;align=left;verticalAlign=top;spacingLeft=4;spacingRight=4;overflow=hidden;rotatable=0;points=[[0,0.5],[1,0.5]];portConstraint=eastwest;rounded=0;shadow=0;html=0;" parent="Bw8D9-mf-STMI-rw64IU-54" vertex="1">
                    <mxGeometry y="52" width="130" height="26" as="geometry"/>
                </mxCell>
                <mxCell id="Bw8D9-mf-STMI-rw64IU-57" style="edgeStyle=elbowEdgeStyle;rounded=0;orthogonalLoop=1;jettySize=auto;elbow=vertical;html=1;exitX=0;exitY=0.5;exitDx=0;exitDy=0;" parent="Bw8D9-mf-STMI-rw64IU-54" source="Bw8D9-mf-STMI-rw64IU-56" target="Bw8D9-mf-STMI-rw64IU-56" edge="1">
                    <mxGeometry relative="1" as="geometry"/>
                </mxCell>
                <mxCell id="Bw8D9-mf-STMI-rw64IU-58" value="sources" style="text;align=left;verticalAlign=top;spacingLeft=4;spacingRight=4;overflow=hidden;rotatable=0;points=[[0,0.5],[1,0.5]];portConstraint=eastwest;rounded=0;shadow=0;html=0;" parent="Bw8D9-mf-STMI-rw64IU-54" vertex="1">
                    <mxGeometry y="78" width="130" height="26" as="geometry"/>
                </mxCell>
                <mxCell id="Bw8D9-mf-STMI-rw64IU-122" value="" style="endArrow=classic;html=1;exitX=0.5;exitY=1;exitDx=0;exitDy=0;entryX=0.5;entryY=0;entryDx=0;entryDy=0;" parent="WIyWlLk6GJQsqaUBKTNV-1" source="Bw8D9-mf-STMI-rw64IU-54" target="Bw8D9-mf-STMI-rw64IU-115" edge="1">
                    <mxGeometry x="0.1387" y="-42" relative="1" as="geometry">
                        <mxPoint x="795" y="675" as="sourcePoint"/>
                        <mxPoint x="520" y="920" as="targetPoint"/>
                        <mxPoint as="offset"/>
                    </mxGeometry>
                </mxCell>
                <mxCell id="Bw8D9-mf-STMI-rw64IU-123" value="has type" style="edgeLabel;resizable=0;html=1;align=center;verticalAlign=middle;" parent="Bw8D9-mf-STMI-rw64IU-122" connectable="0" vertex="1">
                    <mxGeometry relative="1" as="geometry"/>
                </mxCell>
                <mxCell id="Bw8D9-mf-STMI-rw64IU-124" value="1" style="edgeLabel;resizable=0;html=1;align=left;verticalAlign=bottom;" parent="Bw8D9-mf-STMI-rw64IU-122" connectable="0" vertex="1">
                    <mxGeometry x="-1" relative="1" as="geometry">
                        <mxPoint x="75" y="112" as="offset"/>
                    </mxGeometry>
                </mxCell>
                <mxCell id="Bw8D9-mf-STMI-rw64IU-125" value="1..n" style="edgeLabel;resizable=0;html=1;align=right;verticalAlign=bottom;" parent="Bw8D9-mf-STMI-rw64IU-122" connectable="0" vertex="1">
                    <mxGeometry x="1" relative="1" as="geometry">
                        <mxPoint x="-30" y="-100" as="offset"/>
                    </mxGeometry>
                </mxCell>
                <mxCell id="Bw8D9-mf-STMI-rw64IU-115" value="Persons&#39; &#xa;Relationship Type" style="swimlane;fontStyle=2;align=center;verticalAlign=top;childLayout=stackLayout;horizontal=1;startSize=50;horizontalStack=0;resizeParent=1;resizeLast=0;collapsible=1;marginBottom=0;rounded=0;shadow=0;strokeWidth=1;" parent="WIyWlLk6GJQsqaUBKTNV-1" vertex="1">
                    <mxGeometry x="410" y="940" width="140" height="160" as="geometry">
                        <mxRectangle x="230" y="140" width="160" height="26" as="alternateBounds"/>
                    </mxGeometry>
                </mxCell>
                <mxCell id="Bw8D9-mf-STMI-rw64IU-116" value="name" style="text;align=left;verticalAlign=top;spacingLeft=4;spacingRight=4;overflow=hidden;rotatable=0;points=[[0,0.5],[1,0.5]];portConstraint=eastwest;" parent="Bw8D9-mf-STMI-rw64IU-115" vertex="1">
                    <mxGeometry y="50" width="140" height="26" as="geometry"/>
                </mxCell>
                <mxCell id="Bw8D9-mf-STMI-rw64IU-121" value="definition" style="text;align=left;verticalAlign=top;spacingLeft=4;spacingRight=4;overflow=hidden;rotatable=0;points=[[0,0.5],[1,0.5]];portConstraint=eastwest;rounded=0;shadow=0;html=0;" parent="Bw8D9-mf-STMI-rw64IU-115" vertex="1">
                    <mxGeometry y="76" width="140" height="26" as="geometry"/>
                </mxCell>
                <mxCell id="Bw8D9-mf-STMI-rw64IU-15" value="Geographic&#xa;place type" style="swimlane;fontStyle=2;align=center;verticalAlign=top;childLayout=stackLayout;horizontal=1;startSize=40;horizontalStack=0;resizeParent=1;resizeLast=0;collapsible=1;marginBottom=0;rounded=0;shadow=0;strokeWidth=1;" parent="WIyWlLk6GJQsqaUBKTNV-1" vertex="1">
                    <mxGeometry x="530" y="198" width="110" height="140" as="geometry">
                        <mxRectangle x="230" y="140" width="160" height="26" as="alternateBounds"/>
                    </mxGeometry>
                </mxCell>
                <mxCell id="Bw8D9-mf-STMI-rw64IU-16" value="name" style="text;align=left;verticalAlign=top;spacingLeft=4;spacingRight=4;overflow=hidden;rotatable=0;points=[[0,0.5],[1,0.5]];portConstraint=eastwest;" parent="Bw8D9-mf-STMI-rw64IU-15" vertex="1">
                    <mxGeometry y="40" width="110" height="26" as="geometry"/>
                </mxCell>
                <mxCell id="Bw8D9-mf-STMI-rw64IU-37" value="" style="endArrow=classic;html=1;entryX=0.5;entryY=1;entryDx=0;entryDy=0;exitX=0.994;exitY=1.122;exitDx=0;exitDy=0;exitPerimeter=0;" parent="Bw8D9-mf-STMI-rw64IU-15" source="Bw8D9-mf-STMI-rw64IU-17" target="Bw8D9-mf-STMI-rw64IU-15" edge="1">
                    <mxGeometry relative="1" as="geometry">
                        <mxPoint x="160" y="80" as="sourcePoint"/>
                        <mxPoint x="-30" y="140" as="targetPoint"/>
                        <Array as="points">
                            <mxPoint x="190" y="95"/>
                            <mxPoint x="190" y="200"/>
                            <mxPoint x="55" y="200"/>
                        </Array>
                    </mxGeometry>
                </mxCell>
                <mxCell id="Bw8D9-mf-STMI-rw64IU-39" value="1" style="edgeLabel;html=1;align=center;verticalAlign=middle;resizable=0;points=[];" parent="Bw8D9-mf-STMI-rw64IU-37" vertex="1" connectable="0">
                    <mxGeometry x="0.8885" y="-1" relative="1" as="geometry">
                        <mxPoint x="-14" y="-11.69" as="offset"/>
                    </mxGeometry>
                </mxCell>
                <mxCell id="Bw8D9-mf-STMI-rw64IU-38" value="specializes place type" style="edgeLabel;resizable=0;html=1;align=center;verticalAlign=middle;" parent="Bw8D9-mf-STMI-rw64IU-37" connectable="0" vertex="1">
                    <mxGeometry relative="1" as="geometry">
                        <mxPoint x="-70" y="-1.0099999999999998" as="offset"/>
                    </mxGeometry>
                </mxCell>
                <mxCell id="Bw8D9-mf-STMI-rw64IU-40" value="0..n" style="edgeLabel;html=1;align=center;verticalAlign=middle;resizable=0;points=[];" parent="Bw8D9-mf-STMI-rw64IU-37" vertex="1" connectable="0">
                    <mxGeometry x="-0.8808" y="-1" relative="1" as="geometry">
                        <mxPoint x="-0.17999999999999972" y="-11" as="offset"/>
                    </mxGeometry>
                </mxCell>
                <mxCell id="Bw8D9-mf-STMI-rw64IU-17" value="definition" style="text;align=left;verticalAlign=top;spacingLeft=4;spacingRight=4;overflow=hidden;rotatable=0;points=[[0,0.5],[1,0.5]];portConstraint=eastwest;rounded=0;shadow=0;html=0;" parent="Bw8D9-mf-STMI-rw64IU-15" vertex="1">
                    <mxGeometry y="66" width="110" height="26" as="geometry"/>
                </mxCell>
                <mxCell id="Bw8D9-mf-STMI-rw64IU-127" value="&lt;p class=&quot;p1&quot; style=&quot;margin: 0px ; font-stretch: normal ; line-height: normal ; font-family: &amp;quot;times&amp;quot;&quot;&gt;&lt;b&gt;Nathalie Cotter, 19 October 2025 CC BY-SA 4.0&lt;/b&gt;&lt;/p&gt;" style="text;html=1;align=center;verticalAlign=middle;resizable=0;points=[];autosize=1;" parent="WIyWlLk6GJQsqaUBKTNV-1" vertex="1">
                    <mxGeometry x="1080" y="813" width="270" height="30" as="geometry"/>
                </mxCell>
                <mxCell id="Bw8D9-mf-STMI-rw64IU-130" value="" style="endArrow=classic;html=1;entryX=0.5;entryY=0;entryDx=0;entryDy=0;exitX=0.5;exitY=0;exitDx=0;exitDy=0;" parent="WIyWlLk6GJQsqaUBKTNV-1" source="Bw8D9-mf-STMI-rw64IU-128" target="Bw8D9-mf-STMI-rw64IU-12" edge="1">
                    <mxGeometry relative="1" as="geometry">
                        <mxPoint x="1350" y="264" as="sourcePoint"/>
                        <mxPoint x="1160" y="324" as="targetPoint"/>
                        <Array as="points">
                            <mxPoint x="1250" y="80"/>
                            <mxPoint x="340" y="80"/>
                        </Array>
                    </mxGeometry>
                </mxCell>
                <mxCell id="Bw8D9-mf-STMI-rw64IU-131" value="is located in" style="edgeLabel;resizable=0;html=1;align=center;verticalAlign=middle;" parent="Bw8D9-mf-STMI-rw64IU-130" connectable="0" vertex="1">
                    <mxGeometry relative="1" as="geometry">
                        <mxPoint x="-70" y="-1.0099999999999998" as="offset"/>
                    </mxGeometry>
                </mxCell>
                <mxCell id="Bw8D9-mf-STMI-rw64IU-132" value="0..n" style="edgeLabel;html=1;align=center;verticalAlign=middle;resizable=0;points=[];" parent="Bw8D9-mf-STMI-rw64IU-130" vertex="1" connectable="0">
                    <mxGeometry x="-0.8808" y="-1" relative="1" as="geometry">
                        <mxPoint x="24" y="53.45" as="offset"/>
                    </mxGeometry>
                </mxCell>
                <mxCell id="Bw8D9-mf-STMI-rw64IU-133" value="1" style="edgeLabel;html=1;align=center;verticalAlign=middle;resizable=0;points=[];" parent="Bw8D9-mf-STMI-rw64IU-130" vertex="1" connectable="0">
                    <mxGeometry x="0.8885" y="-1" relative="1" as="geometry">
                        <mxPoint x="-26" y="31" as="offset"/>
                    </mxGeometry>
                </mxCell>
                <mxCell id="Bw8D9-mf-STMI-rw64IU-128" value="Organisation" style="swimlane;fontStyle=2;align=center;verticalAlign=top;childLayout=stackLayout;horizontal=1;startSize=40;horizontalStack=0;resizeParent=1;resizeLast=0;collapsible=1;marginBottom=0;rounded=0;shadow=0;strokeWidth=1;" parent="WIyWlLk6GJQsqaUBKTNV-1" vertex="1">
                    <mxGeometry x="1280" y="260" width="120" height="120" as="geometry">
                        <mxRectangle x="230" y="140" width="160" height="26" as="alternateBounds"/>
                    </mxGeometry>
                </mxCell>
                <mxCell id="Bw8D9-mf-STMI-rw64IU-129" value="name" style="text;align=left;verticalAlign=top;spacingLeft=4;spacingRight=4;overflow=hidden;rotatable=0;points=[[0,0.5],[1,0.5]];portConstraint=eastwest;" parent="Bw8D9-mf-STMI-rw64IU-128" vertex="1">
                    <mxGeometry y="40" width="120" height="26" as="geometry"/>
                </mxCell>
                <mxCell id="Bw8D9-mf-STMI-rw64IU-134" value="definition" style="text;align=left;verticalAlign=top;spacingLeft=4;spacingRight=4;overflow=hidden;rotatable=0;points=[[0,0.5],[1,0.5]];portConstraint=eastwest;rounded=0;shadow=0;html=0;" parent="Bw8D9-mf-STMI-rw64IU-128" vertex="1">
                    <mxGeometry y="66" width="120" height="26" as="geometry"/>
                </mxCell>
                <mxCell id="98" value="establishment date" style="text;align=left;verticalAlign=top;spacingLeft=4;spacingRight=4;overflow=hidden;rotatable=0;points=[[0,0.5],[1,0.5]];portConstraint=eastwest;" vertex="1" parent="Bw8D9-mf-STMI-rw64IU-128">
                    <mxGeometry y="92" width="120" height="26" as="geometry"/>
                </mxCell>
                <mxCell id="Bw8D9-mf-STMI-rw64IU-135" value="takes place with" style="endArrow=classic;html=1;exitX=0.5;exitY=0;exitDx=0;exitDy=0;entryX=0.5;entryY=1;entryDx=0;entryDy=0;" parent="WIyWlLk6GJQsqaUBKTNV-1" source="Bw8D9-mf-STMI-rw64IU-77" target="Bw8D9-mf-STMI-rw64IU-128" edge="1">
                    <mxGeometry relative="1" as="geometry">
                        <mxPoint x="1210" y="569" as="sourcePoint"/>
                        <mxPoint x="1100" y="635" as="targetPoint"/>
                    </mxGeometry>
                </mxCell>
                <mxCell id="Bw8D9-mf-STMI-rw64IU-137" value="0..n" style="edgeLabel;resizable=0;html=1;align=left;verticalAlign=bottom;" parent="Bw8D9-mf-STMI-rw64IU-135" connectable="0" vertex="1">
                    <mxGeometry x="-1" relative="1" as="geometry">
                        <mxPoint x="-20" as="offset"/>
                    </mxGeometry>
                </mxCell>
                <mxCell id="Bw8D9-mf-STMI-rw64IU-138" value="0..1" style="edgeLabel;resizable=0;html=1;align=right;verticalAlign=bottom;" parent="Bw8D9-mf-STMI-rw64IU-135" connectable="0" vertex="1">
                    <mxGeometry x="1" relative="1" as="geometry">
                        <mxPoint x="-24.97" y="19.98" as="offset"/>
                    </mxGeometry>
                </mxCell>
                <mxCell id="4" value="" style="endArrow=classic;html=1;entryX=0.25;entryY=1;entryDx=0;entryDy=0;" parent="WIyWlLk6GJQsqaUBKTNV-1" source="Bw8D9-mf-STMI-rw64IU-54" target="zkfFHV4jXpPFQw0GAbJ--0" edge="1">
                    <mxGeometry relative="1" as="geometry">
                        <mxPoint x="425" y="608" as="sourcePoint"/>
                        <mxPoint x="740" y="571.3999999999999" as="targetPoint"/>
                        <Array as="points">
                            <mxPoint x="600" y="810"/>
                            <mxPoint x="740" y="810"/>
                        </Array>
                    </mxGeometry>
                </mxCell>
                <mxCell id="5" value="has target" style="edgeLabel;resizable=0;html=1;align=center;verticalAlign=middle;" parent="4" connectable="0" vertex="1">
                    <mxGeometry relative="1" as="geometry">
                        <mxPoint x="-45" y="-10" as="offset"/>
                    </mxGeometry>
                </mxCell>
                <mxCell id="6" value="1" style="edgeLabel;html=1;align=center;verticalAlign=middle;resizable=0;points=[];" parent="4" vertex="1" connectable="0">
                    <mxGeometry x="0.8885" y="-1" relative="1" as="geometry">
                        <mxPoint x="8" y="-4" as="offset"/>
                    </mxGeometry>
                </mxCell>
                <mxCell id="7" value="0..n" style="edgeLabel;html=1;align=center;verticalAlign=middle;resizable=0;points=[];" parent="4" vertex="1" connectable="0">
                    <mxGeometry x="-0.8808" y="-1" relative="1" as="geometry">
                        <mxPoint x="-0.8300000000000001" y="11" as="offset"/>
                    </mxGeometry>
                </mxCell>
                <mxCell id="8" value="" style="endArrow=classic;html=1;" parent="WIyWlLk6GJQsqaUBKTNV-1" source="Bw8D9-mf-STMI-rw64IU-54" edge="1">
                    <mxGeometry relative="1" as="geometry">
                        <mxPoint x="490" y="780.4324324324323" as="sourcePoint"/>
                        <mxPoint x="730" y="620" as="targetPoint"/>
                        <Array as="points">
                            <mxPoint x="590" y="680"/>
                            <mxPoint x="660" y="680"/>
                        </Array>
                    </mxGeometry>
                </mxCell>
                <mxCell id="9" value="has source" style="edgeLabel;resizable=0;html=1;align=center;verticalAlign=middle;" parent="8" connectable="0" vertex="1">
                    <mxGeometry relative="1" as="geometry">
                        <mxPoint x="1" y="-10" as="offset"/>
                    </mxGeometry>
                </mxCell>
                <mxCell id="10" value="1" style="edgeLabel;html=1;align=center;verticalAlign=middle;resizable=0;points=[];" parent="8" vertex="1" connectable="0">
                    <mxGeometry x="0.8885" y="-1" relative="1" as="geometry">
                        <mxPoint x="2" y="19" as="offset"/>
                    </mxGeometry>
                </mxCell>
                <mxCell id="11" value="0..n" style="edgeLabel;html=1;align=center;verticalAlign=middle;resizable=0;points=[];" parent="8" vertex="1" connectable="0">
                    <mxGeometry x="-0.8808" y="-1" relative="1" as="geometry">
                        <mxPoint x="-0.8300000000000001" y="11" as="offset"/>
                    </mxGeometry>
                </mxCell>
                <mxCell id="52" style="edgeStyle=none;html=1;exitX=0.5;exitY=1;exitDx=0;exitDy=0;entryX=0.75;entryY=0;entryDx=0;entryDy=0;" parent="WIyWlLk6GJQsqaUBKTNV-1" source="45" target="zkfFHV4jXpPFQw0GAbJ--0" edge="1">
                    <mxGeometry relative="1" as="geometry"/>
                </mxCell>
                <mxCell id="78" style="edgeStyle=none;html=1;exitX=0.5;exitY=0;exitDx=0;exitDy=0;rounded=1;strokeColor=default;align=center;verticalAlign=middle;fontFamily=Helvetica;fontSize=11;fontColor=default;labelBackgroundColor=default;endArrow=classic;" parent="WIyWlLk6GJQsqaUBKTNV-1" source="45" target="Bw8D9-mf-STMI-rw64IU-12" edge="1">
                    <mxGeometry relative="1" as="geometry">
                        <mxPoint x="380" y="160" as="targetPoint"/>
                        <Array as="points">
                            <mxPoint x="892" y="160"/>
                            <mxPoint x="380" y="160"/>
                        </Array>
                    </mxGeometry>
                </mxCell>
                <mxCell id="45" value="Site" style="swimlane;fontStyle=2;align=center;verticalAlign=top;childLayout=stackLayout;horizontal=1;startSize=26;horizontalStack=0;resizeParent=1;resizeLast=0;collapsible=1;marginBottom=0;rounded=0;shadow=0;strokeWidth=1;" parent="WIyWlLk6GJQsqaUBKTNV-1" vertex="1">
                    <mxGeometry x="827" y="210" width="140" height="140" as="geometry">
                        <mxRectangle x="230" y="140" width="160" height="26" as="alternateBounds"/>
                    </mxGeometry>
                </mxCell>
                <mxCell id="48" style="edgeStyle=elbowEdgeStyle;rounded=0;orthogonalLoop=1;jettySize=auto;elbow=vertical;html=1;exitX=0;exitY=0.5;exitDx=0;exitDy=0;" parent="45" source="47" target="47" edge="1">
                    <mxGeometry relative="1" as="geometry"/>
                </mxCell>
                <mxCell id="47" value="discovery date&#xa;&#xa;number of excavations" style="text;align=left;verticalAlign=top;spacingLeft=4;spacingRight=4;overflow=hidden;rotatable=0;points=[[0,0.5],[1,0.5]];portConstraint=eastwest;rounded=0;shadow=0;html=0;" parent="45" vertex="1">
                    <mxGeometry y="26" width="140" height="114" as="geometry"/>
                </mxCell>
                <mxCell id="50" value="is excavated by" style="edgeLabel;resizable=0;html=1;align=center;verticalAlign=middle;" parent="WIyWlLk6GJQsqaUBKTNV-1" connectable="0" vertex="1">
                    <mxGeometry x="939.9994706958445" y="528.9962993352757" as="geometry">
                        <mxPoint x="-58" y="-128" as="offset"/>
                    </mxGeometry>
                </mxCell>
                <mxCell id="53" value="Remain/artefact" style="swimlane;fontStyle=2;align=center;verticalAlign=top;childLayout=stackLayout;horizontal=1;startSize=26;horizontalStack=0;resizeParent=1;resizeLast=0;collapsible=1;marginBottom=0;rounded=0;shadow=0;strokeWidth=1;" parent="WIyWlLk6GJQsqaUBKTNV-1" vertex="1">
                    <mxGeometry x="1070" y="122" width="120" height="138" as="geometry">
                        <mxRectangle x="1070" y="122" width="160" height="26" as="alternateBounds"/>
                    </mxGeometry>
                </mxCell>
                <mxCell id="54" style="edgeStyle=elbowEdgeStyle;rounded=0;orthogonalLoop=1;jettySize=auto;elbow=vertical;html=1;exitX=0;exitY=0.5;exitDx=0;exitDy=0;" parent="53" source="55" target="55" edge="1">
                    <mxGeometry relative="1" as="geometry"/>
                </mxCell>
                <mxCell id="55" value="material&#xa;&#xa;chronological period" style="text;align=left;verticalAlign=top;spacingLeft=4;spacingRight=4;overflow=hidden;rotatable=0;points=[[0,0.5],[1,0.5]];portConstraint=eastwest;rounded=0;shadow=0;html=0;" parent="53" vertex="1">
                    <mxGeometry y="26" width="120" height="94" as="geometry"/>
                </mxCell>
                <mxCell id="60" value="1..n" style="edgeLabel;html=1;align=center;verticalAlign=middle;resizable=0;points=[];" parent="WIyWlLk6GJQsqaUBKTNV-1" vertex="1" connectable="0">
                    <mxGeometry x="689.9950227582067" y="290.0043322523237" as="geometry">
                        <mxPoint x="172" y="159" as="offset"/>
                    </mxGeometry>
                </mxCell>
                <mxCell id="61" value="0..n" style="edgeLabel;html=1;align=center;verticalAlign=middle;resizable=0;points=[];" parent="WIyWlLk6GJQsqaUBKTNV-1" vertex="1" connectable="0">
                    <mxGeometry x="699.9950227582067" y="310.0043322523237" as="geometry">
                        <mxPoint x="212" y="59" as="offset"/>
                    </mxGeometry>
                </mxCell>
                <mxCell id="62" value="1..n" style="edgeLabel;html=1;align=center;verticalAlign=middle;resizable=0;points=[];" parent="WIyWlLk6GJQsqaUBKTNV-1" vertex="1" connectable="0">
                    <mxGeometry x="771.9950227582067" y="240.0043322523237" as="geometry">
                        <mxPoint x="212" y="59" as="offset"/>
                    </mxGeometry>
                </mxCell>
                <mxCell id="63" value="1..n" style="edgeLabel;html=1;align=center;verticalAlign=middle;resizable=0;points=[];" parent="WIyWlLk6GJQsqaUBKTNV-1" vertex="1" connectable="0">
                    <mxGeometry x="839.9950227582067" y="130.0043322523237" as="geometry">
                        <mxPoint x="212" y="59" as="offset"/>
                    </mxGeometry>
                </mxCell>
                <mxCell id="64" style="edgeStyle=none;html=1;exitX=1;exitY=0.5;exitDx=0;exitDy=0;entryX=0;entryY=0.5;entryDx=0;entryDy=0;" parent="WIyWlLk6GJQsqaUBKTNV-1" source="47" target="55" edge="1">
                    <mxGeometry relative="1" as="geometry"/>
                </mxCell>
                <mxCell id="65" value="contains" style="edgeLabel;resizable=0;html=1;align=center;verticalAlign=middle;" parent="WIyWlLk6GJQsqaUBKTNV-1" connectable="0" vertex="1">
                    <mxGeometry x="1069.9994706958446" y="369.9962993352757" as="geometry">
                        <mxPoint x="-58" y="-128" as="offset"/>
                    </mxGeometry>
                </mxCell>
                <mxCell id="100" style="edgeStyle=none;html=1;exitX=0.5;exitY=0;exitDx=0;exitDy=0;entryX=0.75;entryY=1;entryDx=0;entryDy=0;" edge="1" parent="WIyWlLk6GJQsqaUBKTNV-1" source="69" target="zkfFHV4jXpPFQw0GAbJ--0">
                    <mxGeometry relative="1" as="geometry"/>
                </mxCell>
                <mxCell id="69" value="Formation ?" style="swimlane;fontStyle=2;align=center;verticalAlign=top;childLayout=stackLayout;horizontal=1;startSize=26;horizontalStack=0;resizeParent=1;resizeLast=0;collapsible=1;marginBottom=0;rounded=0;shadow=0;strokeWidth=1;" parent="WIyWlLk6GJQsqaUBKTNV-1" vertex="1">
                    <mxGeometry x="837" y="770" width="153" height="170" as="geometry">
                        <mxRectangle x="230" y="140" width="160" height="26" as="alternateBounds"/>
                    </mxGeometry>
                </mxCell>
                <mxCell id="70" value="domain" style="text;align=left;verticalAlign=top;spacingLeft=4;spacingRight=4;overflow=hidden;rotatable=0;points=[[0,0.5],[1,0.5]];portConstraint=eastwest;" parent="69" vertex="1">
                    <mxGeometry y="26" width="153" height="26" as="geometry"/>
                </mxCell>
                <mxCell id="71" value="specialty" style="text;align=left;verticalAlign=top;spacingLeft=4;spacingRight=4;overflow=hidden;rotatable=0;points=[[0,0.5],[1,0.5]];portConstraint=eastwest;rounded=0;shadow=0;html=0;" parent="69" vertex="1">
                    <mxGeometry y="52" width="153" height="26" as="geometry"/>
                </mxCell>
                <mxCell id="72" style="edgeStyle=elbowEdgeStyle;rounded=0;orthogonalLoop=1;jettySize=auto;elbow=vertical;html=1;exitX=0;exitY=0.5;exitDx=0;exitDy=0;" parent="69" source="71" target="71" edge="1">
                    <mxGeometry relative="1" as="geometry"/>
                </mxCell>
                <mxCell id="73" value="begin date" style="text;align=left;verticalAlign=top;spacingLeft=4;spacingRight=4;overflow=hidden;rotatable=0;points=[[0,0.5],[1,0.5]];portConstraint=eastwest;rounded=0;shadow=0;html=0;" parent="69" vertex="1">
                    <mxGeometry y="78" width="153" height="26" as="geometry"/>
                </mxCell>
                <mxCell id="74" value="end date" style="text;align=left;verticalAlign=top;spacingLeft=4;spacingRight=4;overflow=hidden;rotatable=0;points=[[0,0.5],[1,0.5]];portConstraint=eastwest;rounded=0;shadow=0;html=0;" parent="69" vertex="1">
                    <mxGeometry y="104" width="153" height="26" as="geometry"/>
                </mxCell>
                <mxCell id="77" value="diploma" style="text;align=left;verticalAlign=top;spacingLeft=4;spacingRight=4;overflow=hidden;rotatable=0;points=[[0,0.5],[1,0.5]];portConstraint=eastwest;rounded=0;shadow=0;html=0;" parent="69" vertex="1">
                    <mxGeometry y="130" width="153" height="26" as="geometry"/>
                </mxCell>
                <mxCell id="79" value="1" style="edgeLabel;html=1;align=center;verticalAlign=middle;resizable=0;points=[];" parent="WIyWlLk6GJQsqaUBKTNV-1" vertex="1" connectable="0">
                    <mxGeometry x="671.5150227582067" y="290.0043322523237" as="geometry">
                        <mxPoint x="-282" y="-103" as="offset"/>
                    </mxGeometry>
                </mxCell>
                <mxCell id="80" value="0..n" style="edgeLabel;html=1;align=center;verticalAlign=middle;resizable=0;points=[];" parent="WIyWlLk6GJQsqaUBKTNV-1" vertex="1" connectable="0">
                    <mxGeometry x="689.9950227582067" y="310.0043322523237" as="geometry">
                        <mxPoint x="185" y="-116" as="offset"/>
                    </mxGeometry>
                </mxCell>
                <mxCell id="81" value="is located in" style="edgeLabel;resizable=0;html=1;align=center;verticalAlign=middle;" parent="WIyWlLk6GJQsqaUBKTNV-1" connectable="0" vertex="1">
                    <mxGeometry x="775.9520003279222" y="88.9899999999999" as="geometry">
                        <mxPoint x="-147" y="71" as="offset"/>
                    </mxGeometry>
                </mxCell>
                <mxCell id="87" value="Formation Type" style="swimlane;fontStyle=2;align=center;verticalAlign=top;childLayout=stackLayout;horizontal=1;startSize=26;horizontalStack=0;resizeParent=1;resizeLast=0;collapsible=1;marginBottom=0;rounded=0;shadow=0;strokeWidth=1;" parent="WIyWlLk6GJQsqaUBKTNV-1" vertex="1">
                    <mxGeometry x="707" y="971" width="130" height="138" as="geometry">
                        <mxRectangle x="230" y="140" width="160" height="26" as="alternateBounds"/>
                    </mxGeometry>
                </mxCell>
                <mxCell id="88" value="name" style="text;align=left;verticalAlign=top;spacingLeft=4;spacingRight=4;overflow=hidden;rotatable=0;points=[[0,0.5],[1,0.5]];portConstraint=eastwest;" parent="87" vertex="1">
                    <mxGeometry y="26" width="130" height="26" as="geometry"/>
                </mxCell>
                <mxCell id="89" value="definition" style="text;align=left;verticalAlign=top;spacingLeft=4;spacingRight=4;overflow=hidden;rotatable=0;points=[[0,0.5],[1,0.5]];portConstraint=eastwest;rounded=0;shadow=0;html=0;" parent="87" vertex="1">
                    <mxGeometry y="52" width="130" height="26" as="geometry"/>
                </mxCell>
                <mxCell id="90" style="edgeStyle=elbowEdgeStyle;rounded=0;orthogonalLoop=1;jettySize=auto;elbow=vertical;html=1;exitX=0;exitY=0.5;exitDx=0;exitDy=0;" parent="87" source="89" target="89" edge="1">
                    <mxGeometry relative="1" as="geometry"/>
                </mxCell>
                <mxCell id="113" style="edgeStyle=none;html=1;exitX=0.5;exitY=1;exitDx=0;exitDy=0;entryX=-0.026;entryY=1.044;entryDx=0;entryDy=0;entryPerimeter=0;" edge="1" parent="WIyWlLk6GJQsqaUBKTNV-1" source="92" target="Bw8D9-mf-STMI-rw64IU-14">
                    <mxGeometry relative="1" as="geometry">
                        <mxPoint x="160" y="250" as="targetPoint"/>
                        <Array as="points">
                            <mxPoint x="1115" y="1140"/>
                            <mxPoint x="160" y="1150"/>
                            <mxPoint x="160" y="720"/>
                            <mxPoint x="160" y="280"/>
                        </Array>
                    </mxGeometry>
                </mxCell>
                <mxCell id="92" value="Institution" style="swimlane;fontStyle=2;align=center;verticalAlign=top;childLayout=stackLayout;horizontal=1;startSize=26;horizontalStack=0;resizeParent=1;resizeLast=0;collapsible=1;marginBottom=0;rounded=0;shadow=0;strokeWidth=1;" parent="WIyWlLk6GJQsqaUBKTNV-1" vertex="1">
                    <mxGeometry x="1050" y="971" width="130" height="138" as="geometry">
                        <mxRectangle x="230" y="140" width="160" height="26" as="alternateBounds"/>
                    </mxGeometry>
                </mxCell>
                <mxCell id="93" value="name" style="text;align=left;verticalAlign=top;spacingLeft=4;spacingRight=4;overflow=hidden;rotatable=0;points=[[0,0.5],[1,0.5]];portConstraint=eastwest;" parent="92" vertex="1">
                    <mxGeometry y="26" width="130" height="26" as="geometry"/>
                </mxCell>
                <mxCell id="94" value="type" style="text;align=left;verticalAlign=top;spacingLeft=4;spacingRight=4;overflow=hidden;rotatable=0;points=[[0,0.5],[1,0.5]];portConstraint=eastwest;rounded=0;shadow=0;html=0;" parent="92" vertex="1">
                    <mxGeometry y="52" width="130" height="26" as="geometry"/>
                </mxCell>
                <mxCell id="95" style="edgeStyle=elbowEdgeStyle;rounded=0;orthogonalLoop=1;jettySize=auto;elbow=vertical;html=1;exitX=0;exitY=0.5;exitDx=0;exitDy=0;" parent="92" source="94" target="94" edge="1">
                    <mxGeometry relative="1" as="geometry"/>
                </mxCell>
                <mxCell id="96" value="establishment date" style="text;align=left;verticalAlign=top;spacingLeft=4;spacingRight=4;overflow=hidden;rotatable=0;points=[[0,0.5],[1,0.5]];portConstraint=eastwest;" vertex="1" parent="92">
                    <mxGeometry y="78" width="130" height="26" as="geometry"/>
                </mxCell>
                <mxCell id="103" style="edgeStyle=none;html=1;exitX=1;exitY=0.5;exitDx=0;exitDy=0;entryX=0.5;entryY=0;entryDx=0;entryDy=0;" edge="1" parent="WIyWlLk6GJQsqaUBKTNV-1" source="73" target="92">
                    <mxGeometry relative="1" as="geometry"/>
                </mxCell>
                <mxCell id="104" value="takes place in" style="edgeLabel;resizable=0;html=1;align=center;verticalAlign=middle;" connectable="0" vertex="1" parent="WIyWlLk6GJQsqaUBKTNV-1">
                    <mxGeometry x="1069.9985352642484" y="909.9987476014721" as="geometry">
                        <mxPoint x="-14" y="4" as="offset"/>
                    </mxGeometry>
                </mxCell>
                <mxCell id="106" style="edgeStyle=none;html=1;exitX=0;exitY=0.5;exitDx=0;exitDy=0;entryX=0.5;entryY=0;entryDx=0;entryDy=0;" edge="1" parent="WIyWlLk6GJQsqaUBKTNV-1" source="73" target="87">
                    <mxGeometry relative="1" as="geometry"/>
                </mxCell>
                <mxCell id="107" value="0..n" style="edgeLabel;resizable=0;html=1;align=right;verticalAlign=bottom;" connectable="0" vertex="1" parent="WIyWlLk6GJQsqaUBKTNV-1">
                    <mxGeometry x="460.15804881192116" y="850.296645462375" as="geometry">
                        <mxPoint x="368" y="14" as="offset"/>
                    </mxGeometry>
                </mxCell>
                <mxCell id="105" value="has type" style="edgeLabel;resizable=0;html=1;align=center;verticalAlign=middle;" connectable="0" vertex="1" parent="WIyWlLk6GJQsqaUBKTNV-1">
                    <mxGeometry x="790.0031581749711" y="929.9979276514844" as="geometry">
                        <mxPoint x="6" y="-13" as="offset"/>
                    </mxGeometry>
                </mxCell>
                <mxCell id="108" value="1" style="edgeLabel;resizable=0;html=1;align=right;verticalAlign=bottom;" connectable="0" vertex="1" parent="WIyWlLk6GJQsqaUBKTNV-1">
                    <mxGeometry x="749.9980488119211" y="939.996645462375" as="geometry">
                        <mxPoint x="20" y="18" as="offset"/>
                    </mxGeometry>
                </mxCell>
                <mxCell id="109" value="1..n" style="edgeLabel;resizable=0;html=1;align=right;verticalAlign=bottom;" connectable="0" vertex="1" parent="WIyWlLk6GJQsqaUBKTNV-1">
                    <mxGeometry x="1019.9980488119212" y="859.996645462375" as="geometry"/>
                </mxCell>
                <mxCell id="110" value="1" style="edgeLabel;resizable=0;html=1;align=right;verticalAlign=bottom;" connectable="0" vertex="1" parent="WIyWlLk6GJQsqaUBKTNV-1">
                    <mxGeometry x="490.15804881192116" y="880.296645462375" as="geometry">
                        <mxPoint x="639" y="83" as="offset"/>
                    </mxGeometry>
                </mxCell>
                <mxCell id="111" value="1..n" style="edgeLabel;resizable=0;html=1;align=right;verticalAlign=bottom;" connectable="0" vertex="1" parent="WIyWlLk6GJQsqaUBKTNV-1">
                    <mxGeometry x="939.9980488119211" y="759.996645462375" as="geometry"/>
                </mxCell>
                <mxCell id="112" value="0..n" style="edgeLabel;resizable=0;html=1;align=right;verticalAlign=bottom;" connectable="0" vertex="1" parent="WIyWlLk6GJQsqaUBKTNV-1">
                    <mxGeometry x="896.9980488119211" y="709.996645462375" as="geometry">
                        <mxPoint x="-13" y="-15" as="offset"/>
                    </mxGeometry>
                </mxCell>
                <mxCell id="115" value="is followed by" style="edgeLabel;resizable=0;html=1;align=center;verticalAlign=middle;" connectable="0" vertex="1" parent="WIyWlLk6GJQsqaUBKTNV-1">
                    <mxGeometry x="699.9983795090473" y="690" as="geometry">
                        <mxPoint x="168" y="20" as="offset"/>
                    </mxGeometry>
                </mxCell>
                <mxCell id="116" value="Employer" style="swimlane;fontStyle=2;align=center;verticalAlign=top;childLayout=stackLayout;horizontal=1;startSize=26;horizontalStack=0;resizeParent=1;resizeLast=0;collapsible=1;marginBottom=0;rounded=0;shadow=0;strokeWidth=1;" vertex="1" parent="WIyWlLk6GJQsqaUBKTNV-1">
                    <mxGeometry x="275" y="470" width="130" height="170" as="geometry">
                        <mxRectangle x="230" y="140" width="160" height="26" as="alternateBounds"/>
                    </mxGeometry>
                </mxCell>
                <mxCell id="117" value="name" style="text;align=left;verticalAlign=top;spacingLeft=4;spacingRight=4;overflow=hidden;rotatable=0;points=[[0,0.5],[1,0.5]];portConstraint=eastwest;" vertex="1" parent="116">
                    <mxGeometry y="26" width="130" height="26" as="geometry"/>
                </mxCell>
                <mxCell id="118" value="establishment date" style="text;align=left;verticalAlign=top;spacingLeft=4;spacingRight=4;overflow=hidden;rotatable=0;points=[[0,0.5],[1,0.5]];portConstraint=eastwest;rounded=0;shadow=0;html=0;" vertex="1" parent="116">
                    <mxGeometry y="52" width="130" height="26" as="geometry"/>
                </mxCell>
                <mxCell id="119" style="edgeStyle=elbowEdgeStyle;rounded=0;orthogonalLoop=1;jettySize=auto;elbow=vertical;html=1;exitX=0;exitY=0.5;exitDx=0;exitDy=0;" edge="1" parent="116" source="118" target="118">
                    <mxGeometry relative="1" as="geometry"/>
                </mxCell>
                <mxCell id="120" value="number of employees" style="text;align=left;verticalAlign=top;spacingLeft=4;spacingRight=4;overflow=hidden;rotatable=0;points=[[0,0.5],[1,0.5]];portConstraint=eastwest;rounded=0;shadow=0;html=0;" vertex="1" parent="116">
                    <mxGeometry y="78" width="130" height="26" as="geometry"/>
                </mxCell>
                <mxCell id="121" value="line of business" style="text;align=left;verticalAlign=top;spacingLeft=4;spacingRight=4;overflow=hidden;rotatable=0;points=[[0,0.5],[1,0.5]];portConstraint=eastwest;rounded=0;shadow=0;html=0;" vertex="1" parent="116">
                    <mxGeometry y="104" width="130" height="26" as="geometry"/>
                </mxCell>
                <mxCell id="127" value="type" style="text;align=left;verticalAlign=top;spacingLeft=4;spacingRight=4;overflow=hidden;rotatable=0;points=[[0,0.5],[1,0.5]];portConstraint=eastwest;rounded=0;shadow=0;html=0;" vertex="1" parent="116">
                    <mxGeometry y="130" width="130" height="26" as="geometry"/>
                </mxCell>
                <mxCell id="125" style="edgeStyle=none;html=1;exitX=0;exitY=0.5;exitDx=0;exitDy=0;entryX=0;entryY=0.5;entryDx=0;entryDy=0;" edge="1" parent="WIyWlLk6GJQsqaUBKTNV-1" source="117" target="Bw8D9-mf-STMI-rw64IU-25">
                    <mxGeometry relative="1" as="geometry">
                        <mxPoint x="200" y="400" as="targetPoint"/>
                        <Array as="points">
                            <mxPoint x="200" y="410"/>
                        </Array>
                    </mxGeometry>
                </mxCell>
                <mxCell id="126" style="edgeStyle=none;html=1;exitX=1;exitY=0.5;exitDx=0;exitDy=0;" edge="1" parent="WIyWlLk6GJQsqaUBKTNV-1" source="120">
                    <mxGeometry relative="1" as="geometry">
                        <mxPoint x="730" y="560" as="targetPoint"/>
                    </mxGeometry>
                </mxCell>
                <mxCell id="128" value="employs" style="edgeLabel;resizable=0;html=1;align=center;verticalAlign=middle;" connectable="0" vertex="1" parent="WIyWlLk6GJQsqaUBKTNV-1">
                    <mxGeometry x="540.3891703612792" y="440.29577395417596" as="geometry">
                        <mxPoint x="4" y="121" as="offset"/>
                    </mxGeometry>
                </mxCell>
                <mxCell id="129" value="0..n" style="edgeLabel;html=1;align=center;verticalAlign=middle;resizable=0;points=[];" vertex="1" connectable="0" parent="WIyWlLk6GJQsqaUBKTNV-1">
                    <mxGeometry x="715.461361469806" y="487.2544305289607" as="geometry">
                        <mxPoint x="-6" y="61" as="offset"/>
                    </mxGeometry>
                </mxCell>
                <mxCell id="130" value="1..n" style="edgeLabel;html=1;align=center;verticalAlign=middle;resizable=0;points=[];" vertex="1" connectable="0" parent="WIyWlLk6GJQsqaUBKTNV-1">
                    <mxGeometry x="730.0013614698059" y="487.2544305289607" as="geometry">
                        <mxPoint x="-307" y="55" as="offset"/>
                    </mxGeometry>
                </mxCell>
                <mxCell id="131" value="0..n" style="edgeLabel;html=1;align=center;verticalAlign=middle;resizable=0;points=[];" vertex="1" connectable="0" parent="WIyWlLk6GJQsqaUBKTNV-1">
                    <mxGeometry x="740.0013614698059" y="500.0044305289607" as="geometry">
                        <mxPoint x="-485" y="16" as="offset"/>
                    </mxGeometry>
                </mxCell>
                <mxCell id="132" value="1" style="edgeLabel;html=1;align=center;verticalAlign=middle;resizable=0;points=[];" vertex="1" connectable="0" parent="WIyWlLk6GJQsqaUBKTNV-1">
                    <mxGeometry x="750.0013614698059" y="517.2544305289607" as="geometry">
                        <mxPoint x="-496" y="-197" as="offset"/>
                    </mxGeometry>
                </mxCell>
                <mxCell id="133" value="1" style="edgeLabel;html=1;align=center;verticalAlign=middle;resizable=0;points=[];" vertex="1" connectable="0" parent="WIyWlLk6GJQsqaUBKTNV-1">
                    <mxGeometry x="250.001361469806" y="260.0044305289607" as="geometry"/>
                </mxCell>
                <mxCell id="134" value="0..n" style="edgeLabel;html=1;align=center;verticalAlign=middle;resizable=0;points=[];" vertex="1" connectable="0" parent="WIyWlLk6GJQsqaUBKTNV-1">
                    <mxGeometry x="750.0013614698059" y="528.9944305289607" as="geometry">
                        <mxPoint x="336" y="596" as="offset"/>
                    </mxGeometry>
                </mxCell>
                <mxCell id="135" value="is located in" style="edgeLabel;resizable=0;html=1;align=center;verticalAlign=middle;" connectable="0" vertex="1" parent="WIyWlLk6GJQsqaUBKTNV-1">
                    <mxGeometry x="775.531832260695" y="88.99000000000001" as="geometry">
                        <mxPoint x="-623" y="699" as="offset"/>
                    </mxGeometry>
                </mxCell>
            </root>
        </mxGraphModel>
    </diagram>
</mxfile>